Coordinates
version=1
nRows=17
nColumns=33
inDegrees=yes

Units are S.I. units (second, meters, Newtons, ...)
Angles are in degrees.

endheader
time	ground_thorax_rot_x	ground_thorax_rot_y	ground_thorax_rot_z	ground_thorax_tx	ground_thorax_ty	ground_thorax_tz	clav_prot_r	clav_elev_r	scapula_abduction_r	scapula_elevation_r	scapula_upward_rot_r	scapula_winging_r	shoulder_elv_r	plane_of_elev_r	axial_rot_r	elbow_flexion_r	pro_sup_r	wrist_flex_r	wrist_dev_r	clav_prot_l	clav_elev_l	scapula_abduction_l	scapula_elevation_l	scapula_upward_rot_l	scapula_winging_l	shoulder_elv_l	plane_of_elev_l	axial_rot_l	elbow_flexion_l	pro_sup_l	wrist_flex_l	wrist_dev_l
      1.93000000	     27.67031047	     42.81889666	     33.44044875	     -0.11923479	      1.00924159	      0.02192469	     -7.84399937	     44.05829702	    -35.48974708	     37.61945972	     39.71277658	      1.89932217	     15.73260597	    -90.00000000	      8.73376119	     66.45559315	     21.59435906	     39.14317550	     -0.45513999	     28.53484006	    -33.92430468	    -45.00000000	     16.13155645	    -17.88739553	      4.16528850	      0.35145920	    -63.03249827	     -6.62571573	     55.60714598	     11.00486684	     -6.67569790	    -24.99999983
      1.94000000	     27.69877521	     42.89591550	     33.38315644	     -0.11919814	      1.00925540	      0.02176270	     -7.85781566	     44.09708297	    -35.54297477	     37.63072865	     39.78806811	      1.88224187	     15.75825131	    -90.00000000	      8.70813811	     66.64709424	     21.52900674	     39.19905215	     -0.45834750	     28.50140358	    -33.79084897	    -45.00000000	     16.03448873	    -17.82163644	      4.28319070	      0.41895308	    -62.94228354	     -6.56421947	     56.01000986	     10.93690518	     -6.78836416	    -24.99999983
      1.95000000	     27.76079714	     42.88862641	     33.28700655	     -0.11916585	      1.00908930	      0.02164733	     -7.83811892	     44.14726775	    -35.52482896	     37.65690759	     39.86915414	      1.87080407	     15.76743832	    -90.00000000	      8.69897939	     66.98401527	     21.42061888	     39.26507857	     -0.45277865	     28.47208832	    -33.69670456	    -45.00000000	     15.98104355	    -17.73858572	      4.35808530	      0.49601005	    -62.94465672	     -6.57463967	     56.58154154	     10.86047513	     -6.94402358	    -24.99999983
      1.96000000	     27.79333374	     42.93198865	     33.20648774	     -0.11919336	      1.00904944	      0.02153509	     -7.83184457	     44.17713689	    -35.52304800	     37.67010856	     39.92090796	      1.86165299	     15.77488537	    -90.00000000	      8.69155928	     67.28789333	     21.29836811	     39.28647712	     -0.43241892	     28.44606536	    -33.62996563	    -45.00000000	     15.95989674	    -17.63910764	      4.40471699	      0.60035958	    -62.95192553	     -6.59086447	     57.13089398	     10.78124296	     -7.11708188	    -24.99999983
      1.97000000	     27.82065049	     42.95707450	     33.11982361	     -0.11918178	      1.00898415	      0.02147675	     -7.84441209	     44.20487626	    -35.52840214	     37.66904667	     39.98656351	      1.83711100	     15.80041358	    -90.00000000	      8.66605976	     67.65274583	     21.13786517	     39.28228929	     -0.39972534	     28.42188071	    -33.57481854	    -45.00000000	     15.95108445	    -17.53657504	      4.43904152	      0.72927501	    -62.99607187	     -6.62621033	     57.74132278	     10.69054249	     -7.32459050	    -24.99999983
      1.98000000	     27.78628147	     43.16473935	     32.98032452	     -0.11941835	      1.00927861	      0.02174928	     -8.02699189	     44.14298990	    -35.72140072	     37.54575124	     40.00672266	      1.74634437	     15.86228470	    -90.00000000	      8.60437156	     68.08918415	     20.19832629	     38.59961854	      0.11525143	     28.50580878	    -33.93269830	    -45.00000000	     16.23491415	    -17.65667977	      4.11468703	      1.41877939	    -63.32152442	     -7.22748901	     58.54143121	     10.25217966	     -8.24423562	    -24.99999983
      1.99000000	     27.71684260	     43.27570472	     33.06513696	     -0.11971071	      1.00990374	      0.02158727	     -8.02111125	     44.15725518	    -35.64478818	     37.53409150	     40.05802425	      1.71397069	     15.88429493	    -90.00000000	      8.58236760	     68.19337576	     20.17902444	     38.62545751	      0.10983264	     28.49277808	    -33.91585987	    -45.00000000	     16.26024856	    -17.55688629	      4.11165951	      1.46006904	    -63.15770049	     -7.21143836	     58.70125974	     10.23542930	     -8.26766638	    -24.99999983
      2.00000000	     27.83079294	     43.21160318	     32.88368783	     -0.11931453	      1.00923290	      0.02152825	     -8.00632537	     44.26208227	    -35.68659877	     37.58913362	     40.22601953	      1.69834371	     15.88930355	    -90.00000000	      8.57739683	     68.78743489	     20.01593531	     38.75056523	      0.14035027	     28.43222892	    -33.69863331	    -45.00000000	     16.10403169	    -17.44498574	      4.30236447	      1.62446682	    -63.13810077	     -7.15502661	     59.56283147	     10.12854068	     -8.42550439	    -24.99999983
      2.01000000	     27.87230652	     43.23907645	     32.79255570	     -0.11933478	      1.00913400	      0.02143975	     -7.97095170	     44.31768074	    -35.63768522	     37.62360520	     40.30924698	      1.69002988	     15.87810834	    -90.00000000	      8.58862971	     69.20444636	     19.83127241	     38.73601113	      0.22942260	     28.40705671	    -33.64904332	    -45.00000000	     16.10446199	    -17.33227571	      4.32874005	      1.82734274	    -63.10457361	     -7.21951831	     60.16996522	     10.04942207	     -8.51942120	    -24.99999983
      2.02000000	     27.88445042	     43.46370061	     32.61435159	     -0.11951317	      1.00934003	      0.02165737	     -8.11788511	     44.31781642	    -35.79246736	     37.53848862	     40.42204555	      1.59075134	     15.90422226	    -90.00000000	      8.56268948	     69.68021340	     18.80541471	     37.89047783	      0.97629342	     28.48993358	    -33.91463589	    -45.00000000	     16.25535684	    -17.56665786	      4.11536670	      2.83961247	    -63.18593268	     -7.87172447	     60.97120516	      9.68090283	     -8.60905362	    -24.99999983
      2.03000000	     27.85859660	     43.52210288	     32.60523518	     -0.11946706	      1.00936728	      0.02157614	     -8.10067376	     44.37772212	    -35.77148952	     37.56548857	     40.52585716	      1.57045217	     15.88370087	    -90.00000000	      8.58324499	     70.03602991	     18.72041137	     38.00577172	      0.99386198	     28.45241823	    -33.79442384	    -45.00000000	     16.18766900	    -17.45912600	      4.21135353	      2.99240756	    -63.03481807	     -7.79952072	     61.39550641	      9.60703812	     -8.66023199	    -24.99999983
      2.04000000	     27.89079193	     43.52907154	     32.55287909	     -0.11943321	      1.00927856	      0.02140605	     -8.03391754	     44.44592752	    -35.66639580	     37.61660112	     40.61661995	      1.57250049	     15.86888258	    -90.00000000	      8.59809894	     70.41086396	     18.60647012	     38.06028432	      1.04258545	     28.42238182	    -33.72633389	    -45.00000000	     16.17573539	    -17.33436048	      4.25408740	      3.14797470	    -62.94495912	     -7.82969509	     61.97069883	      9.54110822	     -8.66326667	    -24.99999983
      2.05000000	     27.89139190	     43.54421688	     32.49455101	     -0.11939023	      1.00919891	      0.02133695	     -7.99688862	     44.49391769	    -35.57342969	     37.64113050	     40.69483339	      1.55839370	     15.85056069	    -90.00000000	      8.61645902	     70.83785213	     18.46098240	     38.05157042	      1.13140405	     28.39600199	    -33.68265387	    -45.00000000	     16.18945129	    -17.20271390	      4.27246461	      3.36918475	    -62.89125587	     -7.86538144	     62.53494497	      9.46283936	     -8.62146414	    -24.99999983
      2.06000000	     27.83826813	     43.71034375	     32.30544821	     -0.11946694	      1.00941322	      0.02160352	     -8.19872303	     44.44315638	    -35.65277891	     37.48306118	     40.78733389	      1.41190823	     15.90777705	    -90.00000000	      8.55938082	     71.40591937	     17.42614952	     36.90874527	      2.11019804	     28.48440657	    -33.93382615	    -45.00000000	     16.29958240	    -17.50394401	      4.08275300	      4.63437769	    -62.96361583	     -8.50059985	     63.43682001	      8.89016053	     -7.72737348	    -24.99999983
      2.07000000	     27.86251292	     43.69315143	     32.29030273	     -0.11934378	      1.00925542	      0.02148890	     -8.10303236	     44.54251765	    -35.53365553	     37.56462823	     40.91017530	      1.42335937	     15.87390979	    -90.00000000	      8.59328894	     71.82322704	     17.30978808	     37.04006704	      2.15228160	     28.45724543	    -33.85637295	    -45.00000000	     16.26478164	    -17.41268746	      4.14170520	      4.79348482	    -62.80561803	     -8.51466110	     63.93679297	      8.78132902	     -7.71936133	    -24.99999983
      2.08000000	     27.88924449	     43.69037303	     32.24786185	     -0.11926090	      1.00915215	      0.02135154	     -8.01432237	     44.61622438	    -35.38567808	     37.62695708	     40.99814033	      1.43178695	     15.84665179	    -90.00000000	      8.62058820	     72.21961151	     17.15827694	     37.03898267	      2.26183980	     28.43616743	    -33.82513653	    -45.00000000	     16.28084787	    -17.30331825	      4.15184999	      5.00551986	    -62.69655959	     -8.58452360	     64.49258476	      8.65348946	     -7.61964663	    -24.99999983
      2.09000000	     27.90238211	     43.68365733	     32.17197491	     -0.11914921	      1.00899454	      0.02129858	     -7.95849499	     44.66966712	    -35.24465866	     37.65887815	     41.07980861	      1.42079378	     15.82149921	    -90.00000000	      8.64581252	     72.68444940	     16.94531625	     36.91102947	      2.45524107	     28.41803179	    -33.81012553	    -45.00000000	     16.31157703	    -17.19506733	      4.14591131	      5.30729695	    -62.62621000	     -8.67174601	     65.10192468	      8.47112597	     -7.40831729	    -24.99999983
